Coordinates
nRows=10
nColumns=24

# SIMM Motion File Header:
name Coordinates
datacolumns 24
datarows 10
otherdata 1
range 0.56167000000000000000 0.57067000000000001000
endheader
time	pelvis_tx	pelvis_ty	pelvis_tz	pelvis_tilt	pelvis_list	pelvis_rotation	hip_flexion_r	hip_adduction_r	hip_rotation_r	knee_angle_r	ankle_angle_r	subtalar_angle_r	mtp_angle_r	hip_flexion_l	hip_adduction_l	hip_rotation_l	knee_angle_l	ankle_angle_l	subtalar_angle_l	mtp_angle_l	lumbar_extension	lumbar_bending	lumbar_rotation
      0.56167000000000000000	      1.53990036459490880000	      0.88681292757861674000	     -0.21488182224799768000	     -4.07899618745889740000	     -4.36053603284507040000	    -10.51364261237760900000	     -5.32124145683715710000	      7.80995629147376390000	      3.25433650490724660000	      2.58984698127585440000	      3.56806433958527380000	     -0.00000000000001365023	      0.00000000000016537735	     28.15302848503949900000	     -9.13396039590603510000	     -2.63505328306415660000	    -57.96368489174965800000	     14.69406867428399200000	      0.00000000000025640278	     -0.00000000000007739664	     -5.91690121268785060000	      2.78124362173814620000	     21.79133390340884800000
      0.56267000000000000000	      1.54171512934476600000	      0.88676097929467856000	     -0.21464699590217914000	     -4.07384615957501060000	     -4.31410931518263310000	    -10.61989863794944700000	     -5.51926308117466840000	      7.74660207346784620000	      3.25797008166141120000	      2.72381650186520390000	      3.58068483972473260000	     -0.00000000000001410873	      0.00000000000016682524	     28.26366161842177900000	     -9.12102732676749990000	     -2.57855850235288740000	    -57.63030246904996500000	     14.68981643727845900000	      0.00000000000025749384	     -0.00000000000007762035	     -5.95352408693536540000	      2.69993958066366480000	     21.80685049882321300000
      0.56367000000000000000	      1.54352882445037710000	      0.88670210748743550000	     -0.21441506037109068000	     -4.06710957651672000000	     -4.26884645771759530000	    -10.72678691971437800000	     -5.71587229495277160000	      7.68350117808392510000	      3.26257793970825190000	      2.85248729998330660000	      3.58999362858473960000	     -0.00000000000001456343	      0.00000000000016830127	     28.36798289890415200000	     -9.10941505987769770000	     -2.51859420377239920000	    -57.28776589751186100000	     14.67786541227195900000	      0.00000000000025859187	     -0.00000000000007784626	     -5.99203642728683490000	      2.61996541506531380000	     21.82503667569677900000
      0.56467000000000001000	      1.54534216300790630000	      0.88664092783909088000	     -0.21418408844491224000	     -4.05984414173362840000	     -4.22397155365169130000	    -10.83388595354367300000	     -5.91201070521107310000	      7.62048472357400360000	      3.26751055818598380000	      2.97939185727766230000	      3.59819851368493060000	     -0.00000000000001501686	      0.00000000000016978667	     28.47020022841989500000	     -9.09824306040413870000	     -2.45747339923550670000	    -56.94217794302762300000	     14.66334812459847300000	      0.00000000000025969222	     -0.00000000000007807291	     -6.03117858967295550000	      2.54043454129233930000	     21.84411271305674500000
      0.56567000000000001000	      1.54715521044012540000	      0.88657782297101484000	     -0.21395396889788207000	     -4.05207766995665610000	     -4.17947090020381310000	    -10.94121244257326400000	     -6.10774506523465010000	      7.55756168895148320000	      3.27297411365718500000	      3.10465935064399550000	      3.60568448609199340000	     -0.00000000000001546714	      0.00000000000017126844	     28.57047342284477800000	     -9.08749160579985120000	     -2.39540051149044730000	    -56.59391088493609300000	     14.64636430583971500000	      0.00000000000026079732	     -0.00000000000007831133	     -6.07091592071977980000	      2.46131365508637990000	     21.86407754981640700000
      0.56667000000000001000	      1.54896738449641470000	      0.88650894244374456000	     -0.21372640648829663000	     -4.04280808719804340000	     -4.13609299861001300000	    -11.04922129720374000000	     -6.30226727455405910000	      7.49491891399116120000	      3.28003048010879090000	      3.22501565222627520000	      3.61101372041967660000	     -0.00000000000001590796	      0.00000000000017273931	     28.66491421199710000000	     -9.07800178580337660000	     -2.33047137412089530000	    -56.23760651602268700000	     14.62198089382516000000	      0.00000000000026191667	     -0.00000000000007858506	     -6.11243875774870920000	      2.38342273158146290000	     21.88670878477515900000
      0.56767000000000001000	      1.55077930480733240000	      0.88643794299654455000	     -0.21349972847064880000	     -4.03327333061520580000	     -4.09309608290328870000	    -11.15746816660605000000	     -6.49609746023827840000	      7.43242777104855620000	      3.28778970118939280000	      3.34359322101641170000	      3.61680829722571410000	     -0.00000000000001634715	      0.00000000000017419761	     28.75768001481872800000	     -9.06897033075697930000	     -2.26463635422580370000	    -55.87875927885188100000	     14.59531010469333100000	      0.00000000000026303192	     -0.00000000000007885430	     -6.15427144072320780000	      2.30600489226922760000	     21.91025686579829600000
      0.56867000000000001000	      1.55259046388213570000	      0.88636058678955576000	     -0.21327570362881385000	     -4.02294305255969410000	     -4.05124212485779540000	    -11.26642908032385500000	     -6.68785157501692940000	      7.37039152415910070000	      3.29765748615698760000	      3.45683459143010770000	      3.62399890146681700000	     -0.00000000000001678145	      0.00000000000017561818	     28.84542085864826800000	     -9.06131397056081410000	     -2.19608368675408890000	    -55.51228343690884500000	     14.56177718420966700000	      0.00000000000026413488	     -0.00000000000007911004	     -6.19703366153441590000	      2.23000630553503900000	     21.93655548501459100000
      0.56967000000000001000	      1.55440162295693880000	      0.88628323058256686000	     -0.21305167878697887000	     -4.01261277450418150000	     -4.00938816681230210000	    -11.37538999404166200000	     -6.87960568979558040000	      7.30835527726964430000	      3.30752527112458240000	      3.57007596184380430000	      3.63118950570792000000	     -0.00000000000001721575	      0.00000000000017703875	     28.93316170247780800000	     -9.05365761036465070000	     -2.12753101928237420000	    -55.14580759496581000000	     14.52824426372600400000	      0.00000000000026523784	     -0.00000000000007936577	     -6.23979588234562500000	      2.15400771880085080000	     21.96285410423088900000
      0.57067000000000001000	      1.55621200089423970000	      0.88619705382453151000	     -0.21283065662095621000	     -4.00315147823295890000	     -3.96882247912259660000	    -11.48532785082689900000	     -7.06691530356428290000	      7.24722203809231400000	      3.32007633938937240000	      3.67657211826602830000	      3.64294431827048860000	     -0.00000000000001761012	      0.00000000000017830534	     29.01728809411494600000	     -9.04791679394031510000	     -2.05618869293417330000	    -54.77146914051542800000	     14.48894124403464700000	      0.00000000000026630965	     -0.00000000000007955628	     -6.28151681936026750000	      2.08007902145729990000	     21.99237020752137500000
